<svg width="835" height="835" viewBox="0 0 835 835" fill="none" xmlns="http://www.w3.org/2000/svg">
<g clip-path="url(#clip0_103_14)">
<path d="M768.006 179.969L456.364 9.97684C444.35 3.43118 430.872 0 417.173 0C403.474 0 389.995 3.43118 377.981 9.97684L66.2999 179.969C53.4943 186.959 42.8124 197.243 35.3711 209.744C27.9299 222.246 24.0026 236.506 24 251.033V583.973C23.9971 598.496 27.9224 612.753 35.3646 625.249C42.8068 637.746 53.4919 648.021 66.2999 654.998L377.942 824.99C389.949 831.557 403.43 835 417.134 835C430.837 835 444.317 831.557 456.325 824.99L767.967 654.998C780.775 648.021 791.46 637.746 798.902 625.249C806.344 612.753 810.27 598.496 810.267 583.973V251.033C810.268 236.509 806.347 222.252 798.913 209.751C791.478 197.25 780.804 186.964 768.006 179.969Z" fill="#373535"/>
<path fill-rule="evenodd" clip-rule="evenodd" d="M459.568 377.504C458.675 375.978 458.802 374.069 459.824 372.544L502.49 309.584C503.641 307.804 503.768 305.641 502.746 303.861C501.724 301.953 499.808 300.935 497.764 300.935H481.158C479.37 300.935 477.581 301.825 476.43 303.479L426.611 377.251C425.333 379.158 423.288 380.176 420.99 380.176H414.729C412.431 380.176 410.386 379.031 409.11 377.251L359.544 303.352C358.522 301.698 356.605 300.808 354.817 300.808H338.21C336.166 300.808 334.122 301.953 333.228 303.861C332.206 305.768 332.462 307.931 333.483 309.584L376.15 372.672C377.173 374.069 377.3 375.978 376.406 377.504C375.511 379.158 373.979 380.048 372.19 380.048H306.912C303.719 380.048 301.292 382.592 301.292 385.645V399.381C301.292 402.561 303.846 404.978 306.912 404.978H529.062C532.256 404.978 534.683 402.434 534.683 399.381V385.645C534.683 382.718 532.512 380.431 529.701 380.048C529.445 380.048 529.189 380.048 528.935 380.048H463.784C461.996 380.048 460.335 379.158 459.568 377.504ZM409.237 458.524L359.416 532.296C358.393 533.95 356.478 534.84 354.689 534.84H338.082C336.038 534.84 334.122 533.695 333.1 531.915C332.078 530.134 332.206 527.845 333.356 526.191L375.894 463.232C376.917 461.706 377.045 459.924 376.15 458.272C375.257 456.744 373.723 455.728 371.934 455.728H306.912C303.846 455.728 301.292 453.31 301.292 450.13V436.395C301.292 433.341 303.719 430.797 306.912 430.797H528.552C528.552 430.797 528.935 430.797 529.062 430.797C532.129 430.797 534.683 433.215 534.683 436.395V450.13C534.683 453.183 532.256 455.728 529.062 455.728H463.911C461.996 455.728 460.463 456.618 459.695 458.272C458.802 459.924 458.929 461.706 459.951 463.104L502.619 526.191C503.641 527.845 503.895 530.006 502.875 531.915C501.853 533.823 499.936 534.968 497.893 534.968H481.285C479.37 534.968 477.708 534.078 476.686 532.55L426.865 458.779C425.589 456.872 423.544 455.854 421.245 455.854H414.985C412.687 455.854 410.642 456.999 409.364 458.779L409.237 458.524Z" fill="white"/>
<path d="M664.431 416.92C664.431 451.881 660.629 482.386 653.024 508.435C645.419 534.141 634.178 557.619 619.299 578.87C604.089 599.778 583.92 621.885 558.791 645.192L580.118 668.842C609.214 644.507 633.02 620.514 651.536 596.865C669.722 573.215 683.774 546.823 693.693 517.689C703.282 488.555 708.076 454.965 708.076 416.92C708.076 378.875 703.282 345.285 693.693 316.151C683.774 287.017 669.722 260.625 651.536 236.976C633.02 213.326 609.214 189.333 580.118 164.998L558.791 188.648C584.251 211.955 604.585 234.062 619.795 254.97C634.674 275.878 645.915 299.356 653.52 325.405C660.794 351.112 664.431 381.617 664.431 416.92Z" fill="white"/>
<path d="M171.038 416.92C171.038 451.881 174.84 482.386 182.445 508.435C190.05 534.141 201.291 557.619 216.17 578.87C231.38 599.778 251.549 621.885 276.678 645.192L255.351 668.842C226.255 644.507 202.449 620.514 183.933 596.865C165.747 573.215 151.695 546.823 141.776 517.689C132.187 488.555 127.393 454.965 127.393 416.92C127.393 378.875 132.187 345.285 141.776 316.151C151.695 287.017 165.747 260.625 183.933 236.976C202.449 213.326 226.255 189.333 255.351 164.998L276.678 188.648C251.218 211.955 230.884 234.062 215.674 254.97C200.795 275.878 189.554 299.356 181.949 325.405C174.675 351.112 171.038 381.617 171.038 416.92Z" fill="white"/>
</g>
<defs>
<clipPath id="clip0_103_14">
<rect width="835" height="835" fill="white"/>
</clipPath>
</defs>
</svg>
